<svg xmlns="http://www.w3.org/2000/svg" height="256.77" width="736" xml:space="preserve"><path style="fill:#1478c7;fill-opacity:1;fill-rule:nonzero;stroke:none" d="M0 .65h191.93v191.92H0Z" transform="matrix(1.33333 0 0 -1.33333 0 256.77)"/><path style="fill:#fff;fill-opacity:1;fill-rule:nonzero;stroke:none" d="m0 0 4.92 3.59c-1.86 2-3.86 4.38-3.86 8.24 0 2.92 2 6.11 4.52 7.44a8.26 8.26 0 0 1-6.5 3.05c-4 0-7.32-2.92-7.32-6.77a7 7 0 0 1 3.72-5.98C-4.52 5.85-2.79 2.53 0 0m-26.3 26.18 4.11 7.3h-6.11c0-1.32-1.2-2.78-2.66-2.78-1.6 0-2.66 1.06-2.66 2.78h-5.44a2.7 2.7 0 0 0-2.66-2.78 2.7 2.7 0 0 0-2.66 2.78h-6.11l3.59-7.04c2.79.27 5.44.4 8.1.4 4.92 0 9.17-.26 12.5-.66m-11.17-64.84a9.9 9.9 0 0 0-1.33 5.3c0 3.47 2 6.39 6.25 8.25 2.79 1.33 4.91 2.52 8.63 4.38 8.77 4.52 11.83 13.02 11.83 21.8 0 4.38-1.2 7.83-2.66 10.76.4-2.4.8-4.39.8-6.78 0-9.17-3.19-15.95-11.56-20.06-5.31-2.66-7.97-3.72-11.16-5.32-4.52-2.39-7.04-5.45-7.04-9.17 0-4.65 2.39-8.1 6.24-9.16m-5.18 1.72a10.84 10.84 0 0 0-3.06 7.58c0 4.38 2.93 8.1 8.1 10.76 4.52 2.12 7.18 3.19 11.17 5.05 8.37 4.12 10.9 11.16 10.9 18.73 0 7.31-2.4 11.03-4.4 13.42 1.47-2.79 1.87-6.1 1.87-8.9 0-8.1-2.39-15.15-11.83-18.87-4.78-1.99-7.84-2.65-11.95-4.51-6.52-3.06-9.04-6.65-9.04-11.96 0-5.05 3.2-9.84 8.24-11.3m-5.05 1.07c-2.26 1.85-5.18 4.91-5.18 10.36 0 5.71 2.39 9.96 9.83 13.15 4.78 2 7.3 2.93 11.83 4.65 9.56 3.6 11.56 10.63 11.56 17.54 0 6.65-2.4 10.5-5.32 13.02 1.73-2.12 2.8-5.71 2.8-9.43 0-8.77-3.33-13.68-12.76-17-3.86-1.2-7.98-2.4-12.23-4-7.7-2.92-11.69-7.17-11.69-14.34 0-7.44 5.71-13.03 11.16-13.95m-5.31.92c-5.32 2.66-7.85 8.38-7.85 13.43 0 7.3 4.52 12.49 12.1 15.28 4.65 1.72 8.37 2.79 13.02 4.38 9.03 3.2 11.96 7.44 11.96 15.55 0 4.65-1.73 8.63-4.52 10.9a5.33 5.33 0 0 0 1.2-3.6c0-2.25-1.2-3.32-2.93-3.32-1.06 0-2.13.67-2.26 1.73.53-.4.93-.53 1.47-.53 1.46 0 2.25 1.06 2.25 2.52 0 2.26-2.12 3.46-4.25 3.72-1.86.27-3.85.27-6.11.27-2.26 0-4.38-.13-7.17-.27 1.72-2.39 7.44-1.72 9.16-2.92-1.46.13-2.92.13-4.38-.26 0-.94-.4-2-1.33-2-1.73 0-2.53 1.86-3.72 5.18l-6.78-.53c-1.06-.13-1.46-.53-1.33-1.33l.67-6.64c0-.27.26-.4.53-.4s.53.13.66.53c.27.54 1.07 1.73 3.06 1.73 2.92 0 5.18-2.66 5.31-5.71-1.06 1.46-3.45 2.79-7.44 2.79-3.05 0-5.58-.93-9.56-.93-4.25 0-6.65 1.6-6.65 3.58 0 .93.14 1.47.67 2.13a4.87 4.87 0 0 1-3.06-4.65c0-2.92 2.13-5.98 8.37-5.98 5.71 0 8.37 3.59 13.55 3.59 2.4 0 3.6-1.2 3.6-2.53 0-1.2-1.07-2.26-2.93-2.26a5.53 5.53 0 0 0-4.65 2.4c-.13.26-.27.4-.53.4-.4 0-.53-.27-.53-.54l.13-6.37c0-.8.4-1.2 1.33-1.07 3.98.4 8.1.93 11.96 1.2 7.17.66 12.09 5.45 12.09 10.76 0 .8 0 1.46-.13 2.26.66-1.06.93-2.13.93-3.45 0-4.92-2.66-8.64-11.16-10.9-4.52-1.2-7.84-1.73-11.7-2.66-10.23-2.39-16.87-10.23-16.87-19 0-8.1 5.71-15.41 13.82-16.48m-44.52 47.97c.53 1.2.67 2.26.67 3.06 0 1.73-.8 3.32-1.6 3.98 2 0 3.72-1.46 3.72-3.45 0-1.86-1.2-3.06-2.79-3.59m24.45-31.62 4.25 2.26c1.47 8.9 6.78 15.14 16.08 17.4C-57.67.8-61.92.66-67.9.4-74.27.13-84.77-.66-92.08-1.2c-1.46-.13-2.39.4-2.79 1.6-.4 1.33-1.2 3.85-1.33 5.31-.13 1.2.13 2 1.2 2.8 2.12 1.46 4.25 3.18 4.25 6.77a6.46 6.46 0 0 1-6.38 6.38 6.72 6.72 0 0 1-2.52-.4c-.8.53-1.6.93-3.2.93-2.25 0-4.24-1.46-4.78-2.66-3.85.27-6.9-2.52-6.64-6.24.53.53 1.6 1.06 2.8 1.06 1.45 0 2.78-1.06 2.78-2.66 0-1.46-.26-3.32-.26-5.3 0-6.12 4.91-9.31 4.91-12.5 0-1.6-1.2-2.92-2.79-2.92.93-3.33 3.99-5.05 8.1-5.05 2.67 0 5.06.26 8.9.26 11.04 0 15.82-1.2 16.75-4.78m40.92-37.6h1.34a20.6 20.6 0 0 1-2.93 10.23 38.1 38.1 0 0 1-3.05 4.78 2.2 2.2 0 0 1-2 1.06c-.53 0-.93-.4-.53-1.06a75.67 75.67 0 0 0 4.39-8.5c-1.6-.27-2-1.07-2-2.4 0-2.12 2-4.11 4.78-4.11m-70.55 68.7c.13 3.71-1.46 5.7-3.72 6.63.4.14.93.4 1.73.4a3.69 3.69 0 0 0 3.59-3.72c0-1.2-.4-2.52-1.6-3.32m85.17-93.54c-.53 1.2-2.26 2.4-4.38 2.4-1.2 0-2-.27-2.53-.54.14 1.06 1.2 2.26 3.32 2.26 2.53 0 3.86-2 3.6-4.12m-.8-5.72a5.02 5.02 0 0 1-3.86 1.73c-2.12 0-3.19-.93-3.72-1.6-.26 1.6 1.06 3.6 3.59 3.6 2.66 0 3.98-1.86 3.98-3.73m-94.46 63.39a7.59 7.59 0 0 0 5.57 4.38 8.8 8.8 0 0 0 1.87 2l-4.52 18.86a11.32 11.32 0 0 0-.94 4.52c0 2 .4 3.98.4 5.05 0 .93-.53 1.2-1.06 1.2-.4 0-.66 0-.8-.14v-.53c0-3.06-1.86-5.45-4.91-5.45a5.47 5.47 0 0 0-5.45 5.45c0 2.92 2.4 5.32 5.45 5.32.53 0 1.2 0 1.99-.27.93 2.39 3.85 4.52 6.9 4.12a11.27 11.27 0 0 1-8.9 4.25c-7.7 0-13.81-5.58-13.81-13.42 0-7.3 5.98-13.16 13.42-13.29zm20.59-28.57c2 0 4.12 1.06 6.1 3.05 3.6 3.46 8.65 8.64 11.7 10.64 2.66 1.72 4.39 2.39 6.11 2.39 1.07 0 1.87-.27 2.66-1.07l4.52 3.46c-5.18 3.85-7.57 8.9-7.7 15.14-7.18-3.85-12.36-9.16-18.34-14.21-1.07-.8-1.6-1.2-2.53-1.2-.93 0-1.73.93-3.32 2.53-1.33 1.32-1.6 2.12-1.6 3.05 0 1.6.54 2.13.54 4.25a6.46 6.46 0 0 1-6.51 6.65c-2.66 0-4.65-1.46-5.32-3.33-3.59-.26-5.84-2.92-5.84-5.7 0-.67.13-1.2.26-1.6a5.36 5.36 0 0 1-2.66-4.52c0-2.26 1.2-4.39 3.2-5.05-.27.4-.4.93-.4 1.6 0 1.2 1.06 2.25 2.52 2.25 1.2 0 2-.4 2.92-1.46 1.2-1.6 2.4-3.05 4.39-4.78 1.86-1.6 3.98-2.66 5.98-3.86 1.2-.8 2.12-1.85 2.12-3.45 0-1.06-.8-2.26-2.39-2.66.66-1.46 2-2.12 3.59-2.12m-7.58 25.9a5.8 5.8 0 0 1-4.65 5.32c.4.27 1.07.67 2.13.67 1.86 0 3.32-1.6 3.32-3.32 0-1.33-.4-2-.8-2.66m14.75-69.9c-.53.67-.8 1.34-.8 2.13 0 1.6 1.33 2.8 3.2 2.8 2.92 0 4.51-3.2 8.37-3.2 4.38 0 6.5 3.2 10.5 3.2 1.99 0 4.78-1.2 4.78-3.73 0-.4-.14-.8-.4-1.06 4.52 0 7.7 3.85 7.7 10.23 0 8.9-.26 12.5-.4 17.4 3.46.14 6.78 1.87 6.25 7.31-.93-.79-2-1.2-3.19-1.2-1.6 0-2.79 1.2-2.79 2.93 0 .8 0 1.73.13 2.66l15.55.4a4.86 4.86 0 0 0-2.52 4.25c0 1.33.53 2.26 1.59 2.8a68.39 68.39 0 0 1-4.12 7.7c-.8 1.2-1.73 2.39-3.59 2.39-4.12.13-12.49-1.06-16.74-2.53-3.19-1.06-6.24-3.45-6.24-8.9 0-5.05 1.72-13.95 1.59-27.9 0-2-.53-2.66-1.73-2.92a18.5 18.5 0 0 0-5.58-.27c-.93.14-1.73.8-2.26 2.8-.66 2.78-2.65 5.57-6.64 5.57-3.59 0-6.77-2.66-6.24-6.64a5.16 5.16 0 0 1-2.53-4.39c0-1.59.53-2.92 1.2-3.72a5.22 5.22 0 0 1-.53-2.39 5.8 5.8 0 0 1 5.44-5.71m-18.73 66.3c-.8 1.6-2.53 2.53-4.52 2.53-.8 0-1.46-.14-2-.27.27 1.06 1.47 2 3.2 2 2.26 0 3.72-1.73 3.32-4.26m23.25-51.42c-.53 1.2-2.26 2.4-4.38 2.4-1.2 0-2-.27-2.53-.54.13 1.06 1.2 2.26 3.32 2.26 2.53 0 3.86-2 3.59-4.12m-11.3-11.56c-.4.8-.52 1.6-.52 2.4 0 .79.13 1.45.4 2.12a8.12 8.12 0 0 0-1.07 3.98c0 2 .93 3.86 2.26 5.05l-8.24 35.75a17.69 17.69 0 0 0-3.72 2.39 39.83 39.83 0 0 0-4.65 4.78c-.53.53-.93.8-1.46.8-.8 0-1.33-.53-1.06-1.6l1.72-8.23 3.6-2.53 9.96-42.78zm10.5 5.84a5.03 5.03 0 0 1-3.85 1.73c-2.13 0-3.19-.93-3.72-1.6-.26 1.6 1.06 3.6 3.59 3.6 2.65 0 3.99-1.86 3.99-3.73m-65.65-9.96 8.1 6.25 9.98 42.78 3.58 2.53 7.98 34.28-1.73 7.97c-2 .4-3.72.93-5.18 1.73zm124.9.8c-.53.66-.8 1.33-.8 2.12 0 1.6 1.34 2.8 3.2 2.8 2.92 0 4.51-3.2 8.37-3.2 4.38 0 6.5 3.2 10.5 3.2 1.99 0 4.78-1.2 4.78-3.72 0-.4-.14-.8-.4-1.07 4.52 0 7.7 3.85 7.7 10.23 0 8.5-.8 17.94-1.72 27.37a6.2 6.2 0 0 1 4.65 5.98 6.5 6.5 0 0 1-1.06 3.32c-.67-.93-1.87-1.72-3.86-2.26-2.79-.8-6.24-1.19-8.77-1.19-5.71 0-7.57.4-10.23 1.2-.13 3.58-2.39 6.5-4.52 8.5 3.32-1.33 4.79-2 10.1-2 17 0 27.5 11.43 27.5 24.45 0 9.44-5.97 13.82-11.42 17.01L6.9-6.78c6.11-2.78 10.1-6.9 10.1-12.48 0-6.12-4.92-10.5-10.63-10.5-6.11 0-10.9 4.38-10.9 10.36 0 4.52 2.13 7.84 6.11 11.03C5.58-5.18 11.7-1.33 15.02 2.26c1.72 1.86 3.18 4.78 3.05 7.04a6.83 6.83 0 0 1 3.99 6.25c0 3.85-3.72 6.77-7.7 6.77a9.14 9.14 0 0 1-6.39-3.05c2.4-.93 4.65-4.12 4.65-7.44 0-2.8-1.72-5.19-3.72-7.18C5.85 1.6 1.86-.66-2.52-4.25c-5.32-4.39-8.5-9.57-8.5-15.41 0-8.1 6.24-15.68 16.07-15.68 3.19 0 5.71.66 7.57 1.86-3.19-3.72-9.16-5.58-15.4-5.58-5.46 0-9.18.8-13.16 3.72-3.6 2.65-6.38 8.9-6.25 13.55a101.58 101.58 0 0 0-9.3-4.65c-4.12-2-5.45-4.12-5.45-7.7 0-4.79 3.32-8.51 4.78-11.3 2-3.59 2.66-6.78 2.93-10.1.8-8.1 5.45-11.82 13.68-11.82 3.73 0 8.64.26 10.63.53.8-3.73 1.73-8.1 1.73-11.43 0-2-.53-2.66-1.73-2.92a18.47 18.47 0 0 0-5.58-.27c-.92.14-1.72.8-2.26 2.8-.66 2.78-2.65 5.57-6.64 5.57-3.59 0-6.77-2.66-6.24-6.64a5.16 5.16 0 0 1-2.53-4.38c0-1.6.53-2.93 1.2-3.73a5.2 5.2 0 0 1-.54-2.39 5.8 5.8 0 0 1 5.45-5.71" transform="matrix(1.33333 0 0 -1.33333 207.41 110.97)"/><path style="fill:#1478c7;fill-opacity:1;fill-rule:nonzero;stroke:none" d="M0 0h18.94v6.26H7.9v4.44h10.66v6.1H7.91v4.4h11.03v6.26H0Zm-27.62 0h21.56v6.42h-11.87l11.67 15.26v5.78h-21.12v-6.42h11.23L-27.62 6.06Zm-19.14 11.3 2.7 10.14h.37l2.7-10.13zm8.8-11.3h8.12l-8.24 27.46h-11.59L-57.87 0h8.12l1.5 5.7h8.76zm-37.22 14.78v6.82H-72a3.3 3.3 0 0 0 3.4-3.39 3.34 3.34 0 0 0-3.4-3.43zM-83.1 0h7.91v9.65h2.02L-68.4 0h8.92l-5.05 8.48a7.21 7.21 0 0 1-1.53 1.94l.04.16c2.42 1.09 5.85 3.15 5.85 7.83 0 4.93-3.9 9.05-10.33 9.05h-12.6zm-20.3 14.78v6.78h3.1A3.37 3.37 0 0 0-97 18.17c0-1.98-1.57-3.4-3.31-3.4zM-111.33 0h7.91v8.88h4.04c6.42 0 10.41 4.08 10.41 9.13 0 5.04-3.99 9.45-10.41 9.45h-11.95zm-34.25 0h10.83l8.23 27.46h-8.88l-4.68-20.55h-.17l-4.68 20.55h-8.88zm-34.12 0h7.92v21.04h6.82v6.42h-21.6v-6.42h6.86zm-23.66-.65c6.46 0 11.83 3.11 11.83 10.78v17.33h-7.91v-16.6c0-3.1-1.7-4.48-3.92-4.48-2.22 0-3.91 1.37-3.91 4.48v16.6h-7.92V10.13c0-7.67 5.37-10.78 11.83-10.78m-35.73.65h10.82l8.24 27.46h-8.89l-4.68-20.55h-.16l-4.69 20.55h-8.88zm-19.18-.44c3.27 0 6.02.84 7.67 1.69v6.9a12.25 12.25 0 0 0-6.26-1.57 7.04 7.04 0 0 0-7.02 7.15c0 4.96 3.8 7.3 7.47 7.3 2.5 0 4.24-.56 5.77-1.33v6.83c-1.61.73-3.63 1.29-6.86 1.29-8.12 0-15.02-5.33-15.02-14.1 0-8.75 6.17-14.16 14.25-14.16m-4.24 29.55h8.32l5.53 6.22h-6.87l-2.74-2.99h-.16l-2.75 3h-6.86l5.53-6.23" transform="matrix(1.33333 0 0 -1.33333 656.65 255.9)"/><path style="fill:#1478c7;fill-opacity:1;fill-rule:nonzero;stroke:none" d="M0 0h7.92v27.46H0Zm-.24 29.11h6.7l5.7 6.22H2.94ZM-16 0h7.91v27.46h-7.91zm-16.8-.65c4.89 0 8.28 1.5 9.94 2.34v12.16h-7.71V6.42a8.51 8.51 0 0 0-1.78-.2c-3.07 0-6.46 2.34-6.46 7.5 0 5.58 2.98 8.32 8.11 8.32 2.83 0 5.25-.96 6.75-1.77v6.46a18.81 18.81 0 0 1-7.92 1.74c-9.33 0-15.58-5.78-15.58-14.74S-40.46-.65-32.8-.65m-33.19 7.03c-3.51 0-5.29 2.82-5.29 7.35 0 4.52 1.78 7.34 5.3 7.34 3.54 0 5.2-2.82 5.2-7.34 0-4.53-1.66-7.35-5.2-7.35m0-7.03c8.19 0 13.68 5.21 13.68 14.38 0 9.16-5.5 14.37-13.69 14.37-8.15 0-13.77-5.2-13.77-14.37 0-9.17 5.61-14.38 13.77-14.38M-100.3 0h17.73v6.5h-9.82v20.96h-7.91zm-20.15 6.38c-3.51 0-5.29 2.82-5.29 7.35 0 4.52 1.78 7.34 5.3 7.34 3.55 0 5.2-2.82 5.2-7.34 0-4.53-1.65-7.35-5.2-7.35m0-7.03c8.19 0 13.68 5.21 13.68 14.38 0 9.16-5.5 14.37-13.69 14.37-8.15 0-13.77-5.2-13.77-14.37 0-9.17 5.62-14.38 13.77-14.38m-46.23.65h7.91v16.47h.13L-150.33 0h9.65v27.46h-7.91v-16.4h-.12l-8.24 16.4h-9.73zm-32.02 27.46V0h7.91v10.74h8.12V0h7.91v27.46h-7.91v-10.5h-8.12v10.5zm-13.65-27.9c3.27 0 6.02.84 7.67 1.69v6.9a12.22 12.22 0 0 0-6.26-1.57 7.04 7.04 0 0 0-7.02 7.15c0 4.96 3.8 7.3 7.47 7.3 2.5 0 4.24-.56 5.77-1.33v6.83c-1.61.72-3.63 1.3-6.86 1.3-8.12 0-15.02-5.34-15.02-14.1s6.17-14.17 14.25-14.17m-38.8.44h18.94v6.26h-11.03v4.44h10.66v6.1h-10.66v4.4h11.03v6.26h-18.94zm-19.9 0h7.9v21.04h6.83v6.42h-21.6v-6.42h6.86V0" transform="matrix(1.33333 0 0 -1.33333 662.67 201.08)"/><path style="fill:#1478c7;fill-opacity:1;fill-rule:nonzero;stroke:none" d="M0 0v-27.45h7.91v10.74h8.12v-10.74h7.91V0h-7.91v-10.5H7.91V0Zm-13.65-27.9c3.27 0 6.02.85 7.68 1.7v6.9a12.25 12.25 0 0 0-6.26-1.58 7.04 7.04 0 0 0-7.03 7.15c0 4.97 3.8 7.3 7.47 7.3 2.5 0 4.24-.56 5.77-1.32v6.82c-1.6.73-3.63 1.3-6.86 1.3-8.12 0-15.02-5.34-15.02-14.1s6.17-14.17 14.25-14.17m-28.63.44h7.92V0h-7.91Zm-.24 29.12h6.7l5.7 6.21h-9.2zm-33.83-29.11h7.91v16.47h.12L-60-27.45h9.65V0h-7.91v-16.4h-.13L-66.62 0h-9.73zM-90-27.9c3.27 0 6.01.85 7.67 1.7v6.9a12.25 12.25 0 0 0-6.26-1.58 7.04 7.04 0 0 0-7.02 7.15c0 4.97 3.8 7.3 7.47 7.3 2.5 0 4.24-.56 5.77-1.32v6.82C-83.99-.2-86 .37-89.24.37c-8.11 0-15.02-5.34-15.02-14.1S-98.08-27.9-90-27.9m-4.24 29.56h8.32l5.53 6.21h-6.87L-90 4.88h-.17l-2.74 3h-6.86zm-29.96-17.81 2.7 10.13h.37l2.7-10.13zm8.8-11.3h8.12L-115.52 0h-11.6l-8.19-27.45h8.12l1.5 5.69h8.76zm-54.1 0h7.54v16.75h.12l7.11-11.67h.57l6.78 11.71h.12v-16.8h7.71V0h-9.16l-5.65-9.73h-.13L-160.14 0h-9.37zm-21.45 14.77v6.83h3.2a3.3 3.3 0 0 0 3.38-3.4 3.34 3.34 0 0 0-3.39-3.43zm-7.91-14.78h7.91v9.65h2.02l4.77-9.65h8.92l-5.05 8.48a7.31 7.31 0 0 1-1.53 1.94l.04.16c2.42 1.1 5.85 3.15 5.85 7.84 0 4.92-3.91 9.04-10.34 9.04h-12.6zm-20.15 6.38c-3.52 0-5.3 2.83-5.3 7.35s1.79 7.35 5.3 7.35c3.55 0 5.2-2.83 5.2-7.35s-1.65-7.35-5.2-7.35m0-7.02c8.2 0 13.69 5.2 13.69 14.37 0 9.17-5.5 14.38-13.7 14.38-8.15 0-13.76-5.21-13.76-14.38 0-9.17 5.61-14.37 13.77-14.37M-256.41 0v-27.45h7.92v10.61h10.74v6.1h-10.74v4.48h10.87V0Zm-34.07-27.45h7.91v16.47h.13l8.31-16.47h9.65V0h-7.91v-16.4h-.12L-280.75 0h-9.73zm-15.99 0h7.92V0h-7.92z" transform="matrix(1.33333 0 0 -1.33333 704.07 109.65)"/><path style="fill:#1478c7;fill-opacity:1;fill-rule:nonzero;stroke:none" d="m0 0 2.7 10.13h.37L5.77 0Zm8.8-11.3h8.12L8.68 16.14H-2.9l-8.2-27.46h8.12l1.5 5.7h8.76zm-34.76 0h7.9V9.72h6.83v6.42h-21.6V9.73h6.87zm-24.07 0h17.73v6.5h-9.82v20.95h-7.91zm-19.7-.65c6.46 0 11.83 3.1 11.83 10.78v17.32h-7.92V-.45c0-3.1-1.7-4.48-3.91-4.48-2.23 0-3.92 1.38-3.92 4.48v16.6h-7.92V-1.17c0-7.67 5.37-10.78 11.84-10.78m-15.55.64-9.29 14.18 9.17 13.28h-9.65l-7.68-12.64v12.64h-7.9V-11.3h7.9V1.9l7.96-13.2zM-131.8 0l2.7 10.13h.37l2.7-10.13Zm8.8-11.3h8.12l-8.23 27.45h-11.6l-8.19-27.46h8.11l1.5 5.7h8.76zm-40.41 27.45V-11.3h7.91V-.69h10.74v6.1h-10.74v4.48h10.86v6.26h-18.77" transform="matrix(1.33333 0 0 -1.33333 513.33 76.36)"/></svg>