<svg width="585.35" height="159.87" xmlns="http://www.w3.org/2000/svg"><path d="M2002.99 567.58h-21.98V686.4h-.42l-47.01-59.05h-3.56l-46.96 59.05h-.46V567.58h-21.94v152.59h20.58l50.59-62.63 50.81 62.63h20.35v-152.6M2069.36 567.58h-21.98v152.59h21.98v-152.6M2255.56 567.58h-18.81l-102.08 117.47V567.58h-20.54v152.59h17.45l103.38-118.15v118.15h20.6v-152.6M2322.55 567.58h-21.91v152.59h21.91v-152.6M2440.12 686.65c-13.04 12.28-25.54 15.89-35.82 15.89-14.14 0-24.19-7.42-24.19-18.13 0-29.32 66.02-28.88 66.02-77.44 0-23.95-18.14-41.38-42.72-41.38-16.59 0-30 4.44-42.78 14.07v27.74c11.21-14.32 25.29-22.14 40.3-22.14 17 0 24.82 10.75 24.82 19.22 0 31.56-65.99 35.16-65.99 77.04 0 24.8 18.36 40.71 46.37 40.71 11.61 0 23.22-3.58 33.99-10.76v-24.82M2595.88 700.51h-52.77V567.58h-21.94V700.5h-52.82v19.66h127.53V700.5M2714.37 700.51h-64.66v-46.1h62.43v-19.67h-62.43v-47.46h66.65v-19.7h-88.56v152.59h86.57V700.5M2773.29 653.53h14.09c23.49 0 30.24 12.08 29.98 24.84-.2 14.3-8.71 23.06-29.98 23.06h-14.09zm16.59 66.64c30.85 0 50.15-16.27 50.15-42.68 0-17.7-9.22-30.92-25.57-37.42 13.91-9.16 22.37-23.26 34.07-42.28 6.47-10.5 10.24-15.66 20.8-30.21h-26.2l-20.15 31.34c-20.13 31.33-29.32 34.9-40.49 34.9h-9.2v-66.24h-21.9v152.59h38.49M2969.85 686.65c-12.95 12.28-25.49 15.89-35.8 15.89-14.12 0-24.15-7.42-24.15-18.13 0-29.32 66.03-28.88 66.03-77.44 0-23.95-18.14-41.38-42.79-41.38-16.52 0-29.94 4.44-42.73 14.07v27.74c11.24-14.32 25.32-22.14 40.33-22.14 16.99 0 24.81 10.75 24.81 19.22 0 31.56-66.02 35.16-66.02 77.04 0 24.8 18.38 40.71 46.34 40.71 11.58 0 23.28-3.58 33.98-10.76v-24.82M3125.69 700.51h-52.76V567.58h-21.96V700.5h-52.83v19.66h127.55V700.5M3211.25 566.25h-4.47l-66 153.92h21.92l45.85-107.15 45.67 107.15h21.73l-64.7-153.92M3370.28 585.71c34.25 0 59.5 24.82 59.5 58.2 0 33.58-25.25 58.15-59.5 58.15-34.03 0-59.32-24.57-59.32-58.16 0-33.37 25.29-58.19 59.32-58.19zm0 136.52c50.32 0 82.14-35.83 82.14-78.33 0-41.17-30.89-78.3-82.6-78.3-49.9 0-81.46 36.9-81.46 78.3 0 42.3 32.43 78.33 81.92 78.33M3618.7 566.25h-4.44l-66 153.92h21.9l45.89-107.15 45.67 107.15h21.7l-64.72-153.92M3852.68 567.58h-18.8l-102.07 117.47V567.58h-20.56v152.59h17.45l103.37-118.15v118.15h20.61v-152.6M3919.71 567.58h-21.93v152.59h21.93v-152.6M4079.27 700.51h-52.76V567.58h-21.96V700.5h-52.83v19.66h127.55V700.5M4133.52 653.53h14.11c23.48 0 30.19 12.08 29.96 24.84-.18 14.3-8.68 23.06-29.96 23.06h-14.11zm16.58 66.64c30.86 0 50.16-16.27 50.16-42.68 0-17.7-9.2-30.92-25.55-37.42 13.88-9.16 22.37-23.26 34.04-42.28 6.45-10.5 10.27-15.66 20.8-30.21h-26.19l-20.15 31.34c-20.13 31.33-29.32 34.9-40.49 34.9h-9.2v-66.24h-21.94v152.59h38.52M4290.92 632.24h47.49l-24.65 55.31zm99.14-64.66h-22.35l-20.37 45h-64.9l-19.25-45h-22.37l65.56 153.5h15.42l68.26-153.5M1925.57 458.9l-26.85 26.18h13.44l25.67-14.1 25.79 14.1h13.39l-26.85-26.19zm65.55-41.4c-18.79 10.95-34.91 15.89-52.58 15.89-34.95 0-60.92-24.84-60.92-58.43 0-34.23 25.08-57.93 61.81-57.93 17.25 0 36.02 6.01 53.26 17.22V310.3c-15.04-7.8-31.33-13.42-55.27-13.42-57.29 0-82.36 44.08-82.36 76.1 0 46.52 35.16 80.55 83.7 80.55 15.68 0 31.56-3.81 52.36-12.52v-23.52M2117.43 431.83h-64.66v-46.14h62.43v-19.64h-62.43v-47.5h66.65V298.9h-88.59v152.62h86.6v-19.7M2226.48 417.94c-12.98 12.32-25.52 15.94-35.8 15.94-14.09 0-24.16-7.42-24.16-18.18 0-29.28 66-28.87 66-77.41 0-23.97-18.12-41.41-42.75-41.41-16.55 0-29.98 4.47-42.74 14.12v27.74c11.22-14.35 25.29-22.17 40.27-22.17 17 0 24.84 10.75 24.84 19.26 0 31.55-65.98 35.14-65.98 76.98 0 24.82 18.35 40.72 46.3 40.72 11.68 0 23.28-3.6 34.02-10.78v-24.8M2397.53 298.9h-30.2l-77.68 75.4v-75.4h-21.97v152.62h21.97v-69.86l64.21 69.86h27.37l-66.5-72.3 82.8-80.32M2501.9 485.08l-28.88-26.19h-13.21l16.79 26.19zm10.53-53.25h-64.7v-46.14h62.41v-19.64h-62.41v-47.5h66.68V298.9h-88.62v152.62h86.64v-19.7M2679.37 384.8h14.12c23.47 0 30.22 12.14 29.97 24.86-.21 14.34-8.71 23.04-29.97 23.04h-14.12zm16.57 66.72c30.87 0 50.14-16.36 50.14-42.73 0-17.7-9.17-30.9-25.52-37.38 13.88-9.19 22.37-23.28 34.04-42.32 6.46-10.54 10.25-15.66 20.8-30.19h-26.17l-20.2 31.33c-20.12 31.32-29.28 34.92-40.48 34.92h-9.18V298.9h-21.94v152.62h38.51M2890.04 431.83h-64.66v-46.14h62.42v-19.64h-62.42v-47.5h66.68V298.9h-88.6v152.62h86.58v-19.7M2947.38 384.62h24.83c16.38 0 26.89 8.72 26.89 23.93 0 11.18-6.08 23.28-25.99 23.28h-25.73zm25.73 66.9c33.36 0 48.56-19.7 48.56-43.87 0-23.9-16.1-42.76-51.42-42.76h-22.87V298.9h-21.92v152.62h47.65M3180.18 358.88c0-37.37-22.36-62-67.77-62-32.22 0-63.54 18.16-63.54 59.72v94.92h21.89v-90.17c0-17.28 2.28-24.4 9.19-31.35 8.78-8.74 19.7-12.97 32.89-12.97 16.82 0 28.84 5.35 35.81 12.29 7.85 7.85 9.63 19.02 9.63 33.36v88.84h21.9v-92.64M3243.61 318.55h27.54c25.78 0 32.7 12.82 32.7 24.21 0 13.84-10.76 23.7-33.85 23.7h-26.39zm0 67.64h14.57c21.68 0 32.23 8.04 32.23 24.4 0 11.39-6.51 21.24-26.65 21.24h-20.15zm-21.93 65.33h44.34c32.87 0 47.01-19.7 47.01-38.95 0-15.9-7.4-26.15-23.27-32.66v-.46c22.77-4.22 36.66-19.26 36.66-39.83 0-18.81-14.05-40.72-52.37-40.72h-52.37v152.62M3380.67 318.55h68.94V298.9h-90.83v152.62h21.89V318.55M3502.03 298.9h-21.95v152.62h21.95V298.9M3676.84 298.9h-30.17l-77.68 75.4v-75.4h-21.91v152.62h21.91v-69.86l64.24 69.86h27.26l-66.49-72.3 82.84-80.32M3797.12 451.52h26.41l-56.66-72.07V298.9h-21.94v80.78l-56.59 71.84h26.4l40.96-52.57 41.42 52.57" style="fill:#555;fill-opacity:1;fill-rule:nonzero;stroke:none" transform="matrix(.13333 0 0 -.13333 0 159.87)"/><path d="M116.7 1140.6a58.38 58.38 0 0 0-58.38-58.33A58.39 58.39 0 0 0 0 1140.71a58.34 58.34 0 0 0 58.4 58.33 58.34 58.34 0 0 0 58.3-58.44M1559.77 1140.6a58.42 58.42 0 0 0-58.41-58.33 58.41 58.41 0 0 0-58.33 58.44 58.37 58.37 0 1 0 116.74-.11M116.7 960.21a58.35 58.35 0 0 0-116.7.11 58.35 58.35 0 1 0 116.7-.11M297.08 960.21a58.37 58.37 0 1 0-116.69.16 58.37 58.37 0 0 0 116.69-.16M1379.36 960.21a58.32 58.32 0 0 0-58.37-58.29 58.37 58.37 0 0 0-58.33 58.4 58.33 58.33 0 0 0 58.41 58.33 58.35 58.35 0 0 0 58.29-58.44M1559.77 960.21a58.38 58.38 0 1 0-116.75.17 58.38 58.38 0 0 0 116.75-.17M116.7 779.85a58.39 58.39 0 0 0-58.38-58.33A58.38 58.38 0 0 0 0 779.96a58.3 58.3 0 0 0 58.4 58.29 58.31 58.31 0 0 0 58.3-58.4M297.08 779.85a58.38 58.38 0 0 0-58.39-58.33 58.4 58.4 0 0 0-58.32 58.44 58.32 58.32 0 0 0 58.42 58.29 58.3 58.3 0 0 0 58.29-58.4M477.44 779.85a58.36 58.36 0 0 0-58.37-58.33 58.39 58.39 0 0 0-58.31 58.44 58.3 58.3 0 0 0 58.43 58.29c32.2 0 58.29-26.13 58.25-58.4M1198.99 779.85a58.41 58.41 0 0 0-58.37-58.33 58.4 58.4 0 0 0-58.33 58.44 58.28 58.28 0 0 0 58.41 58.29 58.33 58.33 0 0 0 58.29-58.4M1379.36 779.85a58.36 58.36 0 0 0-58.37-58.33 58.4 58.4 0 0 0-58.33 58.44 58.3 58.3 0 0 0 58.41 58.29 58.3 58.3 0 0 0 58.29-58.4M1559.77 779.85a58.42 58.42 0 0 0-58.41-58.33 58.4 58.4 0 0 0-58.33 58.44 58.33 58.33 0 0 0 58.44 58.29 58.33 58.33 0 0 0 58.3-58.4M116.7 599.48a58.36 58.36 0 1 0-116.7.07 58.32 58.32 0 0 0 58.4 58.33 58.31 58.31 0 0 0 58.3-58.4M297.08 599.48a58.35 58.35 0 1 0-116.71.07 58.35 58.35 0 0 0 58.42 58.33 58.3 58.3 0 0 0 58.29-58.4M477.44 599.48a58.33 58.33 0 0 0-58.37-58.33 58.37 58.37 0 0 0-58.31 58.4 58.32 58.32 0 0 0 58.43 58.33c32.2 0 58.29-26.13 58.25-58.4M657.85 599.48a58.36 58.36 0 1 0-116.7.07 58.3 58.3 0 0 0 58.4 58.33 58.29 58.29 0 0 0 58.3-58.4M1018.62 599.48a58.37 58.37 0 1 0-116.71.09 58.37 58.37 0 0 0 116.71-.1M1198.99 599.48a58.38 58.38 0 0 0-58.37-58.33 58.38 58.38 0 0 0-58.33 58.4 58.3 58.3 0 0 0 58.41 58.33 58.33 58.33 0 0 0 58.29-58.4M1379.36 599.48a58.33 58.33 0 0 0-58.37-58.33 58.38 58.38 0 0 0-58.33 58.4 58.32 58.32 0 0 0 58.41 58.33 58.3 58.3 0 0 0 58.29-58.4M1559.77 599.48a58.4 58.4 0 0 0-58.41-58.33 58.38 58.38 0 0 0-58.33 58.4 58.35 58.35 0 0 0 58.44 58.33 58.33 58.33 0 0 0 58.3-58.4M116.7 419.07a58.36 58.36 0 0 0-116.7.11c0 32.3 26.2 58.37 58.4 58.33a58.33 58.33 0 0 0 58.3-58.44M297.08 419.07a58.35 58.35 0 0 0-116.71.11 58.35 58.35 0 0 0 58.42 58.33 58.32 58.32 0 0 0 58.29-58.44M477.44 419.07a58.33 58.33 0 0 0-58.37-58.3 58.36 58.36 0 0 0-58.31 58.41 58.32 58.32 0 0 0 58.43 58.33 58.3 58.3 0 0 0 58.25-58.44M657.85 419.07a58.36 58.36 0 0 0-116.7.11 58.3 58.3 0 0 0 58.4 58.33 58.3 58.3 0 0 0 58.3-58.44M838.22 419.07a58.36 58.36 0 0 0-116.7.11c0 32.3 26.21 58.37 58.4 58.33a58.34 58.34 0 0 0 58.3-58.44M1018.62 419.07a58.36 58.36 0 1 0-58.29 58.44c32.2 0 58.29-26.15 58.29-58.44M1198.99 419.07a58.38 58.38 0 0 0-58.37-58.3 58.37 58.37 0 0 0-58.33 58.41 58.3 58.3 0 0 0 58.41 58.33c32.2 0 58.29-26.15 58.29-58.44M1379.36 419.07a58.33 58.33 0 0 0-58.37-58.3 58.37 58.37 0 0 0-58.33 58.41 58.33 58.33 0 0 0 58.41 58.33 58.32 58.32 0 0 0 58.29-58.44M1559.77 419.07a58.37 58.37 0 1 0-116.73.16 58.37 58.37 0 0 0 116.73-.16M116.7 238.7a58.35 58.35 0 1 0-116.7.12 58.35 58.35 0 1 0 116.7-.12M297.08 238.7a58.36 58.36 0 1 0-116.71.12 58.36 58.36 0 1 0 116.71-.12M477.44 238.7a58.33 58.33 0 0 0-58.37-58.3 58.36 58.36 0 0 0-58.31 58.42 58.36 58.36 0 0 0 58.43 58.32 58.33 58.33 0 0 0 58.25-58.44M657.85 238.7a58.35 58.35 0 1 0-116.7.12 58.33 58.33 0 0 0 58.4 58.32 58.34 58.34 0 0 0 58.3-58.44M838.22 238.7a58.35 58.35 0 1 0-116.7.12 58.35 58.35 0 1 0 116.7-.12M1018.62 238.7a58.36 58.36 0 1 0-116.73.12 58.39 58.39 0 0 0 58.44 58.32 58.39 58.39 0 0 0 58.29-58.44M1198.99 238.7a58.38 58.38 0 0 0-58.37-58.3 58.37 58.37 0 0 0-58.33 58.42 58.34 58.34 0 0 0 58.41 58.32 58.39 58.39 0 0 0 58.29-58.44M1379.36 238.7a58.33 58.33 0 0 0-58.37-58.3 58.37 58.37 0 0 0-58.33 58.42 58.36 58.36 0 1 0 116.7-.12M1559.77 238.7a58.37 58.37 0 1 0-116.74.13 58.37 58.37 0 0 0 116.74-.13M116.7 58.33A58.4 58.4 0 0 0 58.31 0 58.37 58.37 0 0 0 0 58.42a58.3 58.3 0 0 0 58.4 58.31 58.3 58.3 0 0 0 58.3-58.4M297.08 58.33A58.39 58.39 0 0 0 238.7 0a58.38 58.38 0 0 0-58.33 58.42 58.33 58.33 0 0 0 58.42 58.31 58.3 58.3 0 0 0 58.29-58.4M477.44 58.33A58.36 58.36 0 0 0 419.07 0a58.38 58.38 0 0 0-58.31 58.42 58.3 58.3 0 0 0 58.43 58.31 58.28 58.28 0 0 0 58.25-58.4M657.85 58.33A58.39 58.39 0 0 0 599.48 0a58.38 58.38 0 0 0-58.33 58.42 58.27 58.27 0 0 0 58.4 58.31 58.28 58.28 0 0 0 58.3-58.4M838.22 58.33A58.4 58.4 0 0 0 779.85 0a58.38 58.38 0 0 0-58.33 58.42 58.3 58.3 0 0 0 58.4 58.31 58.32 58.32 0 0 0 58.3-58.4M1018.62 58.33A58.42 58.42 0 0 0 960.22 0a58.38 58.38 0 0 0-58.33 58.42 58.33 58.33 0 0 0 58.44 58.31 58.33 58.33 0 0 0 58.29-58.4M1198.99 58.33A58.42 58.42 0 0 0 1140.62 0a58.39 58.39 0 0 0-58.33 58.42 58.28 58.28 0 0 0 58.41 58.31 58.33 58.33 0 0 0 58.29-58.4M1379.36 58.33A58.37 58.37 0 0 0 1320.99 0a58.39 58.39 0 0 0-58.33 58.42 58.3 58.3 0 0 0 58.41 58.31 58.3 58.3 0 0 0 58.29-58.4M1559.77 58.33A58.43 58.43 0 0 0 1501.36 0a58.4 58.4 0 0 0-58.33 58.42 58.33 58.33 0 0 0 58.44 58.31 58.33 58.33 0 0 0 58.3-58.4" style="fill:#27b5ef;fill-opacity:1;fill-rule:nonzero;stroke:none" transform="matrix(.13333 0 0 -.13333 0 159.87)"/></svg>