<svg width="596.05" height="132.28" xmlns="http://www.w3.org/2000/svg"><path d="M4035.9 661.41v330.72H2886.51l-1.42-330.72h-364.88v-330.7h-483.96V0H3756.1v330.7h714.25v330.71H4035.9" style="fill:#2cb9f1;fill-opacity:1;fill-rule:nonzero;stroke:none" transform="matrix(.13333 0 0 -.13333 0 132.28)"/><path d="M1032.41 992.13V0h1003.84v330.71l483.94.01v330.7h366.32v330.7h-1854.1M0 992.12V0h992.12v992.12H0" style="fill:#ee263a;fill-opacity:1;fill-rule:nonzero;stroke:none" transform="matrix(.13333 0 0 -.13333 0 132.28)"/><path d="m2170.7 456.54 18.14 23.32 46.39-71.6h34.16l-61.95 95.4 54.17 69.47h-30.85l-58.88-75.36h-1.18v75.36h-28.26V408.26h28.26v48.28M2381.73 612h-30.85l-19.79-31.1H2353l28.73 31.1M1604.73 478.93h65.95v-70.67h28.26v164.87h-28.26V503.4h-65.95v69.72h-28.27V408.26h28.27v70.67M1380.98 432.75h-75.37v46.18h68.3v24.48h-68.3v45.24h73.01v24.48h-101.27V408.26h103.63v24.5M1458.7 408.26h37.69c23.79 0 40.04 16.25 40.04 40.04v10.14h-28.27v-11.55c0-8.47-5.65-14.14-14.13-14.14h-32.97c-8.48 0-14.13 5.67-14.13 14.14v87.62c0 8.47 5.65 14.14 14.13 14.14h32.97c8.48 0 14.13-5.67 14.13-14.14v-11.55h28.27v10.13c0 23.79-16.25 40.04-40.04 40.04h-37.69c-23.79 0-40.04-16.25-40.04-40.04V448.3c0-23.79 16.25-40.04 40.04-40.04M1771.95 521.08h.95l65-112.82h28.27v164.87h-28.27V460.3h-.94l-65.01 112.82h-28.26V408.26h28.26v112.82M2403.18 432.75h-75.37v46.18h68.3v24.48h-68.3v45.24h73v24.48h-101.29V408.26h103.66v24.5M1171.36 408.26h28.26v140.4h47.11v24.47h-122.48v-24.48h47.11V408.26M2023.97 408.26h37.68c23.79 0 40.04 16.25 40.04 40.04v10.14h-28.26v-11.55c0-8.47-5.65-14.14-14.13-14.14h-32.98c-8.48 0-14.13 5.67-14.13 14.14v87.62c0 8.47 5.65 14.14 14.13 14.14h32.98c8.48 0 14.13-5.67 14.13-14.14v-11.55h28.26v10.13c0 23.79-16.25 40.04-40.04 40.04h-37.68c-23.79 0-40.04-16.25-40.04-40.04V448.3c0-23.79 16.25-40.04 40.04-40.04M1939.18 573.13h-28.26V408.26h28.26v164.87M1742.75 129.6h-.95l-65 112.82h-28.27V77.56h28.27v112.81h.94l65.01-112.81h28.26v164.86h-28.26V129.61M1844.02 148.22h68.31v24.48h-68.31v45.23h73.02v24.5h-101.28V77.55h103.63v24.5h-75.37v46.16M1566.1 165.65h-44.75v52.28h44.75c8.48 0 14.13-5.66 14.13-14.14v-24.02c0-8.48-5.65-14.12-14.13-14.12zm42.4 15.54v21.2c0 23.78-16.26 40.03-40.04 40.03h-75.37V77.56h28.26v63.6h27.56l33.21-63.6h31.09l-33.92 64.76c17.67 4.24 29.21 18.85 29.21 38.87M1186.67 116.66h-.94l-39.1 125.76h-29.44l53.23-164.86h29.21l53.23 164.86H1226l-39.33-125.76M1881.47 250.2l22.38 31.09h-23.32l-12.95-16.72-12.96 16.72h-24.26l22.38-31.1h28.73M1424.79 116.2c0-8.5-5.66-14.15-14.14-14.15h-47.1v46.17h48.52c7.53 0 12.72-5.2 12.72-12.73zm-61.24 101.73h43.57c8.48 0 14.13-5.66 14.13-14.14v-18.36c0-7.54-5.18-12.73-12.72-12.73h-44.98zm68.54-57v.95c10.83 5.89 17.43 16.95 17.43 31.32v9.18c0 23.8-16.26 40.04-40.04 40.04h-74.2V77.56h77.73c23.79 0 40.04 16.25 40.04 40.04v10.35c0 15.78-8.01 27.56-20.96 32.99M1927.64 809.63h68.3v24.5h-68.3v45.22h73.01v24.49h-101.28V738.97h103.64v24.5h-75.37v46.16M2348.99 911.61l22.38 31.09h-23.32l-12.95-16.72-12.96 16.72h-24.25l22.37-31.09h28.73M1673.27 777.6c0-8.48-5.66-14.13-14.13-14.13h-37.69c-8.48 0-14.13 5.65-14.13 14.13v87.61c0 8.48 5.65 14.14 14.13 14.14h37.69c8.47 0 14.13-5.66 14.13-14.14zm-11.78 126.24h-42.39c-23.79 0-40.04-16.25-40.04-40.04V779c0-23.78 16.25-40.03 40.04-40.03h42.39c23.79 0 40.04 16.25 40.04 40.04v84.8c0 23.78-16.25 40.03-40.04 40.03M1861.45 903.84h-30.85l-58.88-75.37h-1.18v75.37h-28.26V738.97h28.26v48.28l18.14 23.32 46.4-71.6h34.15l-61.95 95.39 54.17 69.48M1981.57 942.7h-30.85l-19.79-31.09h21.91l28.73 31.09M2353.94 903.84h-37.68c-23.78 0-40.03-16.25-40.03-40.04V779c0-23.78 16.25-40.03 40.03-40.03h37.68c23.79 0 40.04 16.25 40.04 40.04v10.14h-28.26V777.6c0-8.48-5.67-14.13-14.14-14.13h-32.97c-8.48 0-14.12 5.65-14.12 14.13v87.61c0 8.48 5.64 14.14 14.12 14.14h32.97c8.47 0 14.14-5.66 14.14-14.14v-11.54h28.26v10.13c0 23.79-16.25 40.04-40.04 40.04M2203.2 777.6c0-8.48-5.65-14.13-14.13-14.13h-37.68c-8.48 0-14.14 5.65-14.14 14.13v126.24h-28.26V779.01c0-23.8 16.25-40.04 40.04-40.04h42.4c23.78 0 40.04 16.25 40.04 40.04v124.83h-28.27V777.6M1496.62 834.12h-32.97c-8.48 0-14.13 5.66-14.13 14.14v16.95c0 8.48 5.65 14.14 14.13 14.14h29.44c8.48 0 14.13-5.66 14.13-14.14v-11.54h28.26v10.13c0 23.79-16.25 40.04-40.04 40.04h-34.15c-23.79 0-40.04-16.25-40.04-40.04v-14.13c0-23.8 16.25-40.04 40.04-40.04h32.98c8.48 0 14.13-5.65 14.13-14.13v-17.9c0-8.48-5.65-14.13-14.13-14.13h-32.98c-8.48 0-14.13 5.65-14.13 14.13v11.55h-28.26V779c0-23.8 16.25-40.04 40.04-40.04h37.68c23.79 0 40.04 16.25 40.04 40.04v15.07c0 23.8-16.25 40.04-40.04 40.04M1336.94 836.25h-.95l-36.5 67.59h-32.51l53.47-94.92v-69.95h28.26v69.95l56.06 94.92h-29.44l-38.39-67.59M2740.21 738.97h28.26v164.87h-28.26V738.97M2743.03 911.61h21.91l28.73 31.09h-30.84l-19.8-31.09M2667.19 791.02h-.94l-65 112.82h-28.27V738.97h28.27v112.82h.93l65.01-112.82h28.25v164.87h-28.25V791.02M2459.94 809.63h68.3v24.5h-68.3v45.22h73v24.49h-101.28V738.97h103.64v24.5h-75.36v46.16M1186.67 778.07h-.94l-39.1 125.77h-29.44l53.23-164.87h29.21l53.23 164.87H1226l-39.33-125.77M3459.07 738.98h42.39c23.79 0 40.04 16.25 40.04 40.04v124.82h-28.25V777.6c0-8.5-5.65-14.14-14.13-14.14h-37.69c-8.48 0-14.14 5.65-14.14 14.14v126.24h-28.27V779.02c0-23.8 16.26-40.04 40.05-40.04M3728.75 738.98h28.28v140.36h47.09v24.5h-122.46v-24.5h47.09V738.98M3682.82 763.46h-68.29v140.38h-28.26V738.98h96.55v24.48M3871.47 867.57h.97l20.7-62.42h-42.61zm-42.86-128.6 13.91 41.7h58.64l13.9-41.7h29.44l-56.78 164.87h-29.19l-56.75-164.86h26.83M3290.2 787.25l18.14 23.32 46.4-71.6h34.15l-61.96 95.39 54.18 69.48h-30.86l-58.87-75.37h-1.18v75.37h-28.27V738.98h28.27v48.27M3157.61 867.57h.93l20.74-62.42h-42.64zm-28.99-86.9h58.66l13.88-41.7h29.46l-56.76 164.87h-29.21l-56.76-164.86h26.85l13.88 41.68M3013.71 809.63h63.58v24.48h-63.58v45.23H3082v24.5h-96.57V738.98h28.28v70.65M4322.68 503.42h-65.94v69.72h-28.27V408.26h28.27v70.67h65.94v-70.67h28.26v164.88h-28.26v-69.72M3091.34 446.9c0-8.48-5.65-14.15-14.12-14.15h-37.68c-8.5 0-14.14 5.67-14.14 14.14v87.62c0 8.48 5.64 14.13 14.14 14.13h37.68c8.47 0 14.12-5.65 14.12-14.13zm-11.76 126.24h-42.41c-23.78 0-40.03-16.25-40.03-40.05V448.3c0-23.79 16.25-40.04 40.03-40.04h42.41c23.78 0 40.04 16.25 40.04 40.04v84.79c0 23.8-16.26 40.05-40.04 40.05M3395.89 468.32h-.94l-45.69 104.82h-29.47V408.26h28.29v101.5h1.18l44.27-101.5h1.42l44.49 101.5h1.19v-101.5h28.04v164.88h-27.09l-45.69-104.82M3548.04 474.45l20.95 62.4h.96l20.7-62.4zm8 98.7-56.75-164.89h26.85l13.89 41.7h58.65l13.9-41.7h29.44l-56.78 164.88h-29.2M4148.4 573.14h-37.71c-23.79 0-40.04-16.25-40.04-40.05V448.3c0-23.79 16.25-40.04 40.04-40.04h37.71c23.78 0 40.03 16.25 40.03 40.04v10.14h-28.26V446.9c0-8.48-5.65-14.15-14.14-14.15h-32.97c-8.47 0-14.12 5.67-14.12 14.15v87.6c0 8.49 5.65 14.14 14.12 14.14h32.97c8.49 0 14.14-5.65 14.14-14.13v-11.54h28.26v10.12c0 23.8-16.25 40.05-40.03 40.05M3997.66 408.26h28.26v164.88h-28.26V408.26M4000.49 580.9h21.9l28.73 31.1h-30.86l-19.77-31.1M3750.36 573.14h-37.69c-23.79 0-40.04-16.25-40.04-40.05V448.3c0-23.79 16.25-40.04 40.04-40.04h37.69c23.79 0 40.04 16.25 40.04 40.04v10.14h-28.27V446.9c0-8.48-5.66-14.15-14.13-14.15h-32.97c-8.5 0-14.13 5.67-14.13 14.15v87.6c0 8.49 5.63 14.14 14.13 14.14H3748c8.47 0 14.13-5.65 14.13-14.13v-11.54h28.27v10.12c0 23.8-16.25 40.05-40.04 40.05M2866.42 408.26h28.26v70.67h63.6v24.49h-63.6v45.22h68.31v24.5h-96.57V408.26M2626.19 408.26h28.25v164.88h-28.25V408.26M2793.41 460.32h-.94l-65.01 112.82h-28.26V408.26h28.26V521.1h.95l65-112.83h28.26v164.88h-28.26V460.32M3924.65 460.32h-.94l-65.01 112.82h-28.26V408.26h28.26V521.1h.94l65.01-112.83h28.26v164.88h-28.26V460.32M3745.41 580.9l22.37 31.1h-23.32l-12.95-16.72-12.97 16.72h-24.25l22.39-31.1h28.73M3237.37 496.36h-44.74v52.28h44.74c8.49 0 14.12-5.65 14.12-14.13v-24.02c0-8.48-5.63-14.13-14.12-14.13zm42.39 15.54v21.19c0 23.8-16.25 40.05-40.04 40.05h-75.35V408.26h28.26v63.6h27.56l33.21-63.6h31.09l-33.93 64.77c17.67 4.24 29.2 18.85 29.2 38.87M2667.46 172.7h-65.95v69.72h-28.27V77.56h28.27v70.66h65.95V77.56h28.26v164.86h-28.26V172.7M2302.39 148.22h68.3v24.48h-68.3v45.23h73.02v24.5h-101.28V77.55h103.63v24.5h-75.37v46.16M2493.17 242.42h-37.69c-23.79 0-40.04-16.25-40.04-40.04V117.6c0-23.8 16.25-40.04 40.04-40.04h37.69c23.79 0 40.04 16.25 40.04 40.04v10.13h-28.27V116.2c0-8.5-5.65-14.14-14.13-14.14h-32.97c-8.48 0-14.13 5.64-14.13 14.14v87.6c0 8.48 5.65 14.14 14.13 14.14h32.97c8.48 0 14.13-5.66 14.13-14.14v-11.54h28.27v10.13c0 23.8-16.25 40.04-40.04 40.04M2121.03 217.93h47.11V77.56h28.26v140.37h47.11v24.5h-122.48v-24.5M3299.85 116.2c0-8.5-5.66-14.15-14.13-14.15h-37.7c-8.47 0-14.12 5.65-14.12 14.14v87.6c0 8.48 5.65 14.14 14.12 14.14h37.7c8.47 0 14.13-5.66 14.13-14.14zm-11.79 126.22h-42.38c-23.79 0-40.04-16.25-40.04-40.04V117.6c0-23.8 16.25-40.04 40.04-40.04h42.38c23.8 0 40.05 16.25 40.05 40.04v84.78c0 23.8-16.25 40.04-40.05 40.04M3103.19 242.42h-28.27V77.56h96.57v24.5h-68.3v140.36M2834.68 129.6h-.93l-65.02 112.82h-28.27V77.56h28.27v112.81h.95l65-112.81h28.26v164.86h-28.26V129.61M3001.91 116.2c0-8.5-5.66-14.15-14.13-14.15h-37.69c-8.48 0-14.14 5.65-14.14 14.14v87.6c0 8.48 5.66 14.14 14.14 14.14h37.69c8.47 0 14.13-5.66 14.13-14.14zm-11.78 126.22h-42.39c-23.79 0-40.04-16.25-40.04-40.04V117.6c0-23.8 16.25-40.04 40.04-40.04h42.39c23.79 0 40.04 16.25 40.04 40.04v84.78c0 23.8-16.25 40.04-40.04 40.04M3450.58 242.42h-37.68c-23.79 0-40.04-16.25-40.04-40.04V117.6c0-23.8 16.25-40.04 40.04-40.04h37.68c23.8 0 40.05 16.25 40.05 40.04v43.34h-61.24v-24.51h32.97v-20.24c0-8.5-5.65-14.14-14.13-14.14h-32.97c-8.49 0-14.13 5.64-14.13 14.14v87.6c0 8.48 5.64 14.14 14.13 14.14h32.97c8.48 0 14.13-5.66 14.13-14.14v-11.54h28.27v10.13c0 23.8-16.25 40.04-40.05 40.04M3611.21 250.2h21.91l28.73 31.09h-30.86l-19.78-31.1M3535.38 77.56h28.26v164.86h-28.26V77.56M3608.4 77.56h28.25v164.86h-28.25V77.56M581.45 165.41v389.25c0 39.56 34.33 71.62 76.65 71.62h172v102.29l-363.98-.01V165.4h115.33M466.12 728.57v111.8H159.45V728.56h306.67v.01" style="fill:#fff;fill-opacity:1;fill-rule:nonzero;stroke:none" transform="matrix(.13333 0 0 -.13333 0 132.28)"/></svg>